<svg width="138" height="74" viewBox="0 0 138 74" fill="none" xmlns="http://www.w3.org/2000/svg">
<path d="M42.392 23.4545L39.9773 38H36.0284L38.4432 23.4545H42.392ZM44.2635 23.4545H49.1783L51.1953 31.6932H51.3658L56.1101 23.4545H61.0249L58.6101 38H54.7464L56.1385 29.5909H56.0249L51.4226 37.8864H49.093L47.2464 29.5341H47.1328L45.7124 38H41.8487L44.2635 23.4545ZM61.9588 26.6364L62.4986 23.4545H75.1406L74.6009 26.6364H70.2259L68.3509 38H64.4588L66.3338 26.6364H61.9588ZM74.212 38L76.6268 23.4545H87.1097L86.57 26.6364H80.0359L79.6381 29.1364H85.6325L85.0927 32.3182H79.0984L78.7006 34.8182H85.2063L84.6665 38H74.212ZM101.724 28.9091H97.7756C97.804 28.5729 97.785 28.2699 97.7188 28C97.6525 27.7301 97.5388 27.4981 97.3778 27.304C97.2169 27.1051 97.0062 26.9536 96.7457 26.8494C96.4853 26.7453 96.1752 26.6932 95.8153 26.6932C95.1241 26.6932 94.5062 26.866 93.9616 27.2116C93.4171 27.5526 92.965 28.0426 92.6051 28.6818C92.2453 29.3163 91.9896 30.0739 91.8381 30.9545C91.7055 31.8068 91.7008 32.5147 91.8239 33.0781C91.9517 33.6416 92.2003 34.063 92.5696 34.3423C92.9437 34.6217 93.429 34.7614 94.0256 34.7614C94.4233 34.7614 94.7879 34.714 95.1193 34.6193C95.4555 34.5246 95.7538 34.3897 96.0142 34.2145C96.2794 34.0346 96.5043 33.8215 96.6889 33.5753C96.8783 33.3243 97.0227 33.0473 97.1222 32.7443H101.099C100.948 33.3598 100.678 33.9896 100.29 34.6335C99.9015 35.2727 99.3996 35.8622 98.7841 36.402C98.1686 36.937 97.4441 37.3703 96.6108 37.7017C95.7775 38.0331 94.84 38.1989 93.7983 38.1989C92.4347 38.1989 91.258 37.9006 90.2685 37.304C89.2836 36.7074 88.5687 35.8362 88.1236 34.6903C87.6832 33.5445 87.5956 32.1477 87.8608 30.5C88.1259 28.9091 88.6491 27.5762 89.4304 26.5014C90.2116 25.4266 91.161 24.617 92.2784 24.0724C93.3958 23.5279 94.5843 23.2557 95.8438 23.2557C96.7955 23.2557 97.6477 23.3812 98.4006 23.6321C99.1581 23.883 99.795 24.25 100.311 24.733C100.832 25.2112 101.215 25.8007 101.462 26.5014C101.708 27.2022 101.795 28.0047 101.724 28.9091ZM102.025 38L104.439 23.4545H108.388L107.451 29.1364H112.678L113.615 23.4545H117.564L115.15 38H111.201L112.138 32.3182H106.911L105.973 38H102.025Z" fill="#086AAE"/>
<path d="M38.4489 45.1818L37.483 51H36.0767L37.0426 45.1818H38.4489ZM44.2578 47.2898H42.8544C42.862 47.142 42.8478 47.0104 42.8118 46.8949C42.7758 46.7775 42.719 46.6771 42.6413 46.5938C42.5637 46.5085 42.4671 46.4441 42.3516 46.4006C42.236 46.357 42.1016 46.3352 41.9482 46.3352C41.6546 46.3352 41.3885 46.4081 41.1499 46.554C40.9112 46.6998 40.7114 46.91 40.5504 47.1847C40.3894 47.4593 40.2768 47.7888 40.2124 48.1733C40.1536 48.5445 40.1546 48.8542 40.2152 49.1023C40.2777 49.3504 40.3932 49.5369 40.5618 49.6619C40.7304 49.785 40.9444 49.8466 41.2038 49.8466C41.3724 49.8466 41.5286 49.8267 41.6726 49.7869C41.8184 49.7453 41.95 49.6856 42.0675 49.608C42.1849 49.5303 42.2862 49.4366 42.3714 49.3267C42.4586 49.215 42.5258 49.0909 42.5732 48.9545H43.9879C43.9179 49.2102 43.8023 49.465 43.6413 49.7188C43.4822 49.9706 43.2815 50.1989 43.0391 50.4034C42.7966 50.608 42.5154 50.7718 42.1953 50.8949C41.8752 51.018 41.5192 51.0795 41.1271 51.0795C40.5911 51.0795 40.129 50.9593 39.7408 50.7188C39.3544 50.4782 39.075 50.1297 38.9027 49.6733C38.7322 49.215 38.7 48.66 38.8061 48.0085C38.9103 47.3778 39.1158 46.8466 39.4226 46.4148C39.7313 45.983 40.1063 45.6562 40.5476 45.4347C40.9908 45.2131 41.4633 45.1023 41.9652 45.1023C42.3288 45.1023 42.6555 45.1515 42.9453 45.25C43.237 45.3466 43.4841 45.4886 43.6868 45.6761C43.8894 45.8617 44.04 46.09 44.1385 46.3608C44.2389 46.6316 44.2786 46.9413 44.2578 47.2898ZM45.0341 46.3239L45.2273 45.1818H50.1449L49.9517 46.3239H48.1875L47.4148 51H46.0284L46.8011 46.3239H45.0341ZM55.3999 46.9375C55.415 46.7235 55.3582 46.5578 55.2294 46.4403C55.1025 46.3229 54.9018 46.2642 54.6271 46.2642C54.4453 46.2642 54.29 46.2879 54.1612 46.3352C54.0324 46.3807 53.9311 46.4451 53.8572 46.5284C53.7834 46.6098 53.737 46.7045 53.718 46.8125C53.701 46.8977 53.7057 46.9735 53.7322 47.0398C53.7588 47.1061 53.8052 47.1648 53.8714 47.2159C53.9396 47.267 54.0239 47.3116 54.1243 47.3494C54.2266 47.3873 54.3411 47.4205 54.468 47.4489L54.9453 47.5625C55.2218 47.625 55.4614 47.7083 55.6641 47.8125C55.8686 47.9148 56.0343 48.0388 56.1612 48.1847C56.2881 48.3286 56.3752 48.4943 56.4226 48.6818C56.4699 48.8693 56.4737 49.0795 56.4339 49.3125C56.3733 49.6799 56.2285 49.9953 55.9993 50.2585C55.772 50.5218 55.4747 50.7235 55.1072 50.8636C54.7417 51.0038 54.3165 51.0739 53.8317 51.0739C53.3468 51.0739 52.9349 51.0009 52.5959 50.8551C52.2588 50.7074 52.0144 50.4848 51.8629 50.1875C51.7114 49.8902 51.6707 49.5152 51.7408 49.0625H53.0845C53.0637 49.25 53.0874 49.4062 53.1555 49.5312C53.2256 49.6562 53.3336 49.7509 53.4794 49.8153C53.6252 49.8797 53.8014 49.9119 54.0078 49.9119C54.1972 49.9119 54.3629 49.8864 54.505 49.8352C54.6489 49.7841 54.7635 49.7131 54.8487 49.6222C54.9358 49.5312 54.9889 49.4271 55.0078 49.3097C55.0268 49.2017 55.0088 49.108 54.9538 49.0284C54.9008 48.9489 54.8099 48.8797 54.6811 48.821C54.5542 48.7623 54.3875 48.7093 54.1811 48.6619L53.5987 48.5199C53.1177 48.4025 52.7531 48.215 52.505 47.9574C52.2588 47.6998 52.1716 47.3504 52.2436 46.9091C52.3042 46.5473 52.4538 46.2311 52.6925 45.9602C52.933 45.6894 53.237 45.4792 53.6044 45.3295C53.9737 45.178 54.38 45.1023 54.8232 45.1023C55.2739 45.1023 55.6527 45.179 55.9595 45.3324C56.2682 45.4839 56.4908 45.6979 56.6271 45.9744C56.7654 46.2491 56.8052 46.5701 56.7464 46.9375H55.3999ZM62.826 48.1818C62.7199 48.8087 62.5116 49.3381 62.201 49.7699C61.8923 50.1998 61.5163 50.5256 61.0732 50.7472C60.6319 50.9688 60.1574 51.0795 59.6499 51.0795C59.1139 51.0795 58.6499 50.9602 58.2578 50.7216C57.8658 50.483 57.5807 50.1354 57.4027 49.679C57.2266 49.2225 57.1925 48.6686 57.3004 48.017C57.4027 47.3902 57.6082 46.8598 57.9169 46.4261C58.2275 45.9924 58.6054 45.6638 59.0504 45.4403C59.4974 45.215 59.9766 45.1023 60.4879 45.1023C61.0201 45.1023 61.4813 45.2225 61.8714 45.4631C62.2635 45.7036 62.5476 46.053 62.7237 46.5114C62.8999 46.9697 62.9339 47.5265 62.826 48.1818ZM61.4197 48.017C61.4785 47.6515 61.4785 47.3438 61.4197 47.0938C61.3629 46.8438 61.2512 46.6553 61.0845 46.5284C60.9179 46.3996 60.701 46.3352 60.4339 46.3352C60.1385 46.3352 59.8714 46.4081 59.6328 46.554C59.3961 46.6979 59.1982 46.9081 59.0391 47.1847C58.88 47.4593 58.7692 47.7917 58.7067 48.1818C58.6423 48.5511 58.6404 48.8589 58.701 49.1051C58.7635 49.3513 58.88 49.5369 59.0504 49.6619C59.2209 49.785 59.4377 49.8466 59.701 49.8466C59.9946 49.8466 60.2588 49.7756 60.4936 49.6335C60.7285 49.4915 60.9245 49.2841 61.0817 49.0114C61.2408 48.7386 61.3535 48.4072 61.4197 48.017ZM63.1783 51L64.1442 45.1818H65.5504L64.7777 49.858H67.1982L67.005 51H63.1783ZM72.2188 45.1818H73.6222L73 48.9347C72.928 49.3684 72.7623 49.7462 72.5028 50.0682C72.2453 50.3883 71.9167 50.6364 71.517 50.8125C71.1174 50.9867 70.6723 51.0739 70.1818 51.0739C69.6894 51.0739 69.2737 50.9867 68.9347 50.8125C68.5956 50.6364 68.3504 50.3883 68.1989 50.0682C68.0473 49.7462 68.0066 49.3684 68.0767 48.9347L68.6989 45.1818H70.1051L69.5 48.8125C69.4678 49.0133 69.483 49.1922 69.5455 49.3494C69.6098 49.5047 69.714 49.6278 69.858 49.7188C70.0019 49.8078 70.178 49.8523 70.3864 49.8523C70.5966 49.8523 70.7888 49.8078 70.9631 49.7188C71.1373 49.6278 71.2813 49.5047 71.3949 49.3494C71.5085 49.1922 71.5814 49.0133 71.6136 48.8125L72.2188 45.1818ZM74.12 46.3239L74.3132 45.1818H79.2308L79.0376 46.3239H77.2734L76.5007 51H75.1143L75.8871 46.3239H74.12ZM81.3239 45.1818L80.358 51H78.9517L79.9176 45.1818H81.3239ZM87.201 48.1818C87.0949 48.8087 86.8866 49.3381 86.576 49.7699C86.2673 50.1998 85.8913 50.5256 85.4482 50.7472C85.0069 50.9688 84.5324 51.0795 84.0249 51.0795C83.4889 51.0795 83.0249 50.9602 82.6328 50.7216C82.2408 50.483 81.9557 50.1354 81.7777 49.679C81.6016 49.2225 81.5675 48.6686 81.6754 48.017C81.7777 47.3902 81.9832 46.8598 82.2919 46.4261C82.6025 45.9924 82.9804 45.6638 83.4254 45.4403C83.8724 45.215 84.3516 45.1023 84.8629 45.1023C85.3951 45.1023 85.8563 45.2225 86.2464 45.4631C86.6385 45.7036 86.9226 46.053 87.0987 46.5114C87.2749 46.9697 87.3089 47.5265 87.201 48.1818ZM85.7947 48.017C85.8535 47.6515 85.8535 47.3438 85.7947 47.0938C85.7379 46.8438 85.6262 46.6553 85.4595 46.5284C85.2929 46.3996 85.076 46.3352 84.8089 46.3352C84.5135 46.3352 84.2464 46.4081 84.0078 46.554C83.7711 46.6979 83.5732 46.9081 83.4141 47.1847C83.255 47.4593 83.1442 47.7917 83.0817 48.1818C83.0173 48.5511 83.0154 48.8589 83.076 49.1051C83.1385 49.3513 83.255 49.5369 83.4254 49.6619C83.5959 49.785 83.8127 49.8466 84.076 49.8466C84.3696 49.8466 84.6338 49.7756 84.8686 49.6335C85.1035 49.4915 85.2995 49.2841 85.4567 49.0114C85.6158 48.7386 85.7285 48.4072 85.7947 48.017ZM93.4709 45.1818L92.505 51H91.3118L89.5589 47.642H89.5192L88.9595 51H87.5533L88.5192 45.1818H89.7294L91.468 48.5341H91.5163L92.0675 45.1818H93.4709Z" fill="#086AAE"/>
<path fill-rule="evenodd" clip-rule="evenodd" d="M112.138 6C113.795 6 115.138 4.65685 115.138 3C115.138 1.34315 113.795 0 112.138 0C110.481 0 109.138 1.34315 109.138 3C109.138 4.65685 110.481 6 112.138 6ZM105.66 6.30792L105.66 6.30794C99.6019 8.26035 95.6522 9.5332 92.1378 15L87 22.7704L88.9814 17.839C92.2011 7.41418 99.2268 4.59653 105.594 2.04297C106.458 1.69656 107.309 1.35502 108.138 1V5.5C107.274 5.788 106.449 6.05372 105.66 6.30792ZM116.138 5.5C117.002 5.78801 117.826 6.05373 118.615 6.30794C124.674 8.26035 128.623 9.5332 132.138 15L137.276 22.7704L135.294 17.839C132.075 7.41418 125.049 4.59653 118.682 2.04297C117.818 1.69656 116.966 1.35502 116.138 1V5.5Z" fill="#F25F00"/>
<path fill-rule="evenodd" clip-rule="evenodd" d="M25.1378 67.7704C26.7947 67.7704 28.1378 69.1135 28.1378 70.7704C28.1378 72.4272 26.7947 73.7704 25.1378 73.7704C23.481 73.7704 22.1378 72.4272 22.1378 70.7704C22.1378 69.1135 23.481 67.7704 25.1378 67.7704ZM18.6605 67.4625L18.6604 67.4624C12.6019 65.51 8.65222 64.2372 5.13785 58.7704L0 51L1.98139 55.9314C5.20108 66.3562 12.2268 69.1739 18.5941 71.7274C19.4578 72.0738 20.3095 72.4154 21.1378 72.7704V68.2704C20.2739 67.9824 19.4493 67.7167 18.6605 67.4625ZM29.1378 68.2704C30.0019 67.9824 30.8264 67.7167 31.6153 67.4624C37.6737 65.51 41.6235 64.2372 45.1378 58.7704L50.2757 51L48.2943 55.9314C45.0746 66.3562 38.0489 69.1739 31.6816 71.7274C30.8179 72.0738 29.9662 72.4154 29.1378 72.7704V68.2704Z" fill="#F25F00"/>
</svg>
