<svg width="450" height="123" viewBox="0 0 450 123" fill="none" xmlns="http://www.w3.org/2000/svg">
<path d="M70.0781 80.0625C70.0781 82.5625 69.5469 85 68.4844 87.375C67.4844 89.6875 66.0469 91.75 64.1719 93.5625C62.2969 95.3125 59.9844 96.7188 57.2344 97.7812C54.4844 98.8438 51.3594 99.375 47.8594 99.375C46.3594 99.375 44.7969 99.2812 43.1719 99.0938C41.6094 98.9688 40.0156 98.7188 38.3906 98.3438C36.7656 97.9688 35.2031 97.4688 33.7031 96.8438C32.2656 96.1562 31.0156 95.3438 29.9531 94.4062L31.9219 86.3438C32.7969 86.8438 33.8906 87.3438 35.2031 87.8438C36.5781 88.2812 37.9844 88.7188 39.4219 89.1562C40.8594 89.5312 42.2969 89.8438 43.7344 90.0938C45.1719 90.3438 46.5156 90.4688 47.7656 90.4688C51.5781 90.4688 54.4844 89.5938 56.4844 87.8438C58.5469 86.0312 59.5781 83.375 59.5781 79.875C59.5781 77.75 58.8594 75.9375 57.4219 74.4375C55.9844 72.9375 54.1719 71.5938 51.9844 70.4062C49.8594 69.1562 47.5469 67.9375 45.0469 66.75C42.5469 65.5 40.2031 64.0625 38.0156 62.4375C35.8281 60.75 34.0156 58.7812 32.5781 56.5312C31.1406 54.2812 30.4219 51.4688 30.4219 48.0938C30.4219 45.0312 30.9844 42.3125 32.1094 39.9375C33.2344 37.5625 34.7344 35.5625 36.6094 33.9375C38.5469 32.25 40.7656 30.9688 43.2656 30.0938C45.8281 29.2187 48.5156 28.7812 51.3281 28.7812C54.2031 28.7812 57.1094 29.0625 60.0469 29.625C62.9844 30.125 65.3594 30.9688 67.1719 32.1562C66.7969 32.9688 66.3594 33.875 65.8594 34.875C65.3594 35.8125 64.8906 36.7188 64.4531 37.5938C64.0156 38.4062 63.6406 39.0938 63.3281 39.6562C63.0156 40.2188 62.8281 40.5312 62.7656 40.5938C62.3906 40.4062 61.9531 40.1562 61.4531 39.8438C61.0156 39.5312 60.3594 39.2188 59.4844 38.9062C58.6094 38.5938 57.4531 38.375 56.0156 38.25C54.5781 38.125 52.7344 38.1562 50.4844 38.3438C49.2344 38.4688 48.0469 38.8438 46.9219 39.4688C45.7969 40.0312 44.7969 40.75 43.9219 41.625C43.0469 42.5 42.3594 43.5 41.8594 44.625C41.3594 45.6875 41.1094 46.7188 41.1094 47.7188C41.1094 50.2188 41.8281 52.25 43.2656 53.8125C44.7031 55.3125 46.4844 56.6562 48.6094 57.8438C50.7344 58.9688 53.0469 60.0938 55.5469 61.2188C58.0469 62.2812 60.3594 63.5938 62.4844 65.1562C64.6719 66.7188 66.4844 68.6875 67.9219 71.0625C69.3594 73.375 70.0781 76.375 70.0781 80.0625ZM134.578 29.9062V99H123.328V67.875H93.4219V99H81.9844V29.9062H93.4219V60.1875H123.328V29.9062H134.578ZM204.797 29.9062V64.125C204.797 69.9375 204.141 75.0625 202.828 79.5C201.578 83.9375 199.797 87.625 197.484 90.5625C195.172 93.5 192.359 95.7188 189.047 97.2188C185.734 98.7188 182.047 99.4688 177.984 99.4688C173.859 99.4688 170.141 98.7188 166.828 97.2188C163.578 95.7188 160.766 93.5 158.391 90.5625C156.078 87.625 154.266 83.9375 152.953 79.5C151.703 75.0625 151.078 69.9375 151.078 64.125V29.9062H162.516V63C162.516 68.125 162.859 72.4375 163.547 75.9375C164.297 79.4375 165.328 82.25 166.641 84.375C167.953 86.4375 169.547 87.9375 171.422 88.875C173.297 89.8125 175.391 90.2812 177.703 90.2812C180.078 90.2812 182.234 89.8438 184.172 88.9688C186.109 88.0938 187.766 86.625 189.141 84.5625C190.516 82.5 191.578 79.7188 192.328 76.2188C193.078 72.7188 193.453 68.3125 193.453 63V29.9062H204.797ZM273.516 29.9062H284.953V99H273.516V51.4688L258.047 89.9062H248.109L232.547 51.4688V99H221.109V29.9062H232.547L253.078 77.1562L273.516 29.9062ZM299.484 99L323.672 30H334.828L358.828 99H347.203L342.234 84.6562H316.266L311.203 99H299.484ZM318.891 77.0625H339.516L329.297 47.25L318.891 77.0625ZM420.141 91.9688C417.578 94.4688 414.672 96.3438 411.422 97.5938C408.172 98.8438 404.672 99.4688 400.922 99.4688C396.797 99.4688 392.984 98.7188 389.484 97.2188C386.047 95.7188 383.016 93.5 380.391 90.5625C377.828 87.625 375.797 83.9375 374.297 79.5C372.859 75.0625 372.141 69.9375 372.141 64.125C372.141 58.3125 372.859 53.2188 374.297 48.8438C375.797 44.4062 377.828 40.7188 380.391 37.7812C383.016 34.8438 386.078 32.625 389.578 31.125C393.078 29.5625 396.859 28.7812 400.922 28.7812C404.672 28.7812 408.172 29.4062 411.422 30.6562C414.672 31.9063 417.578 33.7812 420.141 36.2812L412.359 43.2188C410.797 41.4062 409.047 40.0938 407.109 39.2812C405.234 38.4688 403.266 38.0625 401.203 38.0625C398.891 38.0625 396.672 38.5 394.547 39.375C392.484 40.25 390.609 41.75 388.922 43.875C387.297 45.9375 386.016 48.625 385.078 51.9375C384.141 55.25 383.641 59.3125 383.578 64.125C383.641 68.8125 384.109 72.8125 384.984 76.125C385.922 79.4375 387.172 82.1562 388.734 84.2812C390.359 86.3438 392.172 87.875 394.172 88.875C396.234 89.8125 398.391 90.2812 400.641 90.2812C402.891 90.2812 404.984 89.875 406.922 89.0625C408.922 88.25 410.734 86.9375 412.359 85.125L420.141 91.9688Z" fill="#5CB377"/>
<rect x="2.5" y="14.5" width="445" height="95" stroke="#5CB377" stroke-width="5"/>
</svg>
